<?xml version="1.0" standalone="no"?>
<!DOCTYPE svg PUBLIC "-//W3C//DTD SVG 20010904//EN"
 "http://www.w3.org/TR/2001/REC-SVG-20010904/DTD/svg10.dtd">
<svg version="1.0" xmlns="http://www.w3.org/2000/svg"
 width="640.000000pt" height="640.000000pt" viewBox="0 0 640.000000 640.000000"
 preserveAspectRatio="xMidYMid meet">
<metadata>
Created by potrace 1.11, written by Peter Selinger 2001-2013
</metadata>
<g transform="translate(0.000000,640.000000) scale(0.100000,-0.100000)"
fill="#000000" stroke="none">
<path d="M2998 5364 c-52 -7 -111 -15 -132 -18 -72 -12 -292 -89 -377 -132
-223 -115 -428 -298 -567 -507 l-45 -67 -51 7 c-100 15 -305 7 -389 -15 -72
-20 -244 -93 -257 -110 -3 -4 -24 -20 -48 -36 -207 -141 -359 -409 -379 -671
-3 -46 -9 -64 -26 -77 -12 -10 -26 -18 -30 -18 -4 0 -43 -23 -85 -52 -261
-174 -414 -369 -493 -628 -18 -60 -23 -100 -23 -195 -1 -172 17 -250 93 -405
125 -256 378 -468 720 -604 36 -14 72 -26 81 -26 9 0 20 -4 26 -9 16 -14 217
-60 339 -76 28 -3 79 -9 115 -11 103 -8 3324 -7 3434 0 488 33 948 254 1179
565 23 31 45 58 48 61 23 18 118 243 135 318 14 61 12 268 -2 337 -20 93 -85
243 -143 330 -43 64 -165 197 -236 256 -53 43 -178 123 -256 164 l-76 39 -6
115 c-14 304 -163 566 -412 726 -230 148 -437 181 -750 121 -27 -6 -33 -1 -69
50 -45 63 -145 167 -226 235 -221 187 -533 316 -810 335 -145 10 -189 9 -282
-2z"/>
</g>
</svg>
